<?xml version="1.0" standalone="no"?>
<!DOCTYPE svg PUBLIC "-//W3C//DTD SVG 20010904//EN"
 "http://www.w3.org/TR/2001/REC-SVG-20010904/DTD/svg10.dtd">
<svg version="1.0" xmlns="http://www.w3.org/2000/svg"
 width="500.000000pt" height="500.000000pt" viewBox="0 0 500.000000 500.000000"
 preserveAspectRatio="xMidYMid meet">

<g transform="translate(0.000000,500.000000) scale(0.100000,-0.100000)"
fill="#000000" stroke="none">
<path d="M1210 2705 l0 -667 428 4 c361 4 436 7 485 21 122 36 199 94 244 185
25 51 28 68 28 157 -1 89 -4 106 -27 151 -40 77 -95 117 -208 151 -8 2 17 19
57 39 122 59 170 145 161 292 -10 159 -99 257 -283 308 -51 14 -125 18 -472
21 l-413 5 0 -667z m654 331 c38 -16 60 -62 50 -110 -12 -67 -46 -86 -153 -86
l-81 0 0 105 0 105 75 0 c42 0 90 -6 109 -14z m26 -482 c28 -28 41 -86 29
-129 -14 -50 -50 -65 -154 -65 l-85 0 0 111 0 111 95 -4 c80 -2 98 -6 115 -24z"/>
<path d="M2420 2705 l0 -665 240 0 240 0 0 182 0 181 41 54 c22 30 43 52 46
50 2 -3 44 -108 92 -233 l87 -229 277 -3 c152 -1 277 0 277 2 0 2 -90 187
-200 411 -110 224 -200 412 -200 417 0 5 90 118 200 251 l200 242 -267 3
c-147 1 -273 0 -278 -2 -6 -2 -69 -90 -141 -196 l-129 -191 -3 195 -2 196
-240 0 -240 0 0 -665z"/>
</g>
</svg>
