<svg version="1.1" id="Capa_1" xmlns="http://www.w3.org/2000/svg" xmlns:xlink="http://www.w3.org/1999/xlink" x="0px" y="0px" viewBox="0 0 1200 1200" enable-background="new 0 0 1200 1200" xml:space="preserve">
<g>
	<path fill="#494949" d="M801.51,268.183c0.098,8.032-0.018,16.05-0.327,24.026c-5.902,152.409-75.826,295.883-164.396,420.055&#10;&#9;&#9;c-26.864,37.663-55.697,74.261-76.749,115.456c-21.051,41.195-34.041,88.183-26.554,133.835&#10;&#9;&#9;c10.624,64.782,61.22,124.171,47.86,188.445c-72.985-41.699-125.169-117.995-137.568-201.132&#10;&#9;&#9;c-11.312-75.853,9.146-153.364,40.977-223.138c33.564-73.574,79.538-140.751,117.249-212.288&#10;&#9;&#9;c37.711-71.537,67.594-150.084,64.82-230.904c-1.461-42.568-62.771-258.793,36.182-229.888&#10;&#9;&#9;c18.905,5.522,33.694,20.283,45.477,36.065C786.456,139.574,800.732,204.309,801.51,268.183z" style="fill: rgb(18, 75, 100);"/>
	<path fill="#494949" d="M460.305,245.493c0-37.386-2.886-75.051,0.705-112.089c4.872-50.242,36.054-63.322,76.851-33.312&#10;&#9;&#9;c37.168,27.34,52.11,67.494,56.792,112.18c14.362,137.066-34.199,251.278-126.666,349.676&#10;&#9;&#9;c-42.199,44.906-91.838,84.275-108.358,148.296c-1.504,5.83-14.089,14.28-18.298,12.733c-7.515-2.763-15.94-11.288-18.097-19.041&#10;&#9;&#9;c-14.177-50.969-6.696-100.684,17.227-146.738c20.529-39.521,45.19-76.917,68.427-115.008&#10;&#9;&#9;C445.762,381.747,466.991,317.007,460.305,245.493z" style="fill: rgb(18, 75, 100);"/>
	<path fill="#494949" d="M882.846,582.757c0.275,2.144,0.473,4.297,0.624,6.433c5.824,82.283-46.037,156.243-95.447,222.297&#10;&#9;&#9;s-101.302,139.978-95.552,222.266c-45.581-16.906-70.855-68.476-71.372-117.089c-1.264-119.019,92.724-224.31,154.303-318.041&#10;&#9;&#9;c11.587-17.637,23.888-35.951,42.354-46.167c18.466-10.216,44.986-9.215,57.308,7.918&#10;&#9;&#9;C879.734,566.865,881.822,574.752,882.846,582.757z" style="fill: rgb(18, 75, 100);"/>
</g>
</svg>