<?xml version="1.0" standalone="no"?>
<!DOCTYPE svg PUBLIC "-//W3C//DTD SVG 20010904//EN"
 "http://www.w3.org/TR/2001/REC-SVG-20010904/DTD/svg10.dtd">
<svg version="1.0" xmlns="http://www.w3.org/2000/svg"
 width="338.000000pt" height="184.000000pt" viewBox="0 0 338.000000 184.000000"
 preserveAspectRatio="xMidYMid meet">

<g transform="translate(0.000000,184.000000) scale(0.100000,-0.100000)"
fill="#000000" stroke="none">
<path d="M50 900 l0 -890 238 0 c448 1 912 17 977 35 150 39 271 131 330 250
27 55 30 71 33 185 3 109 1 132 -18 182 -38 102 -118 178 -232 219 -32 12 -55
25 -53 29 3 5 41 29 84 54 134 77 186 157 198 301 22 286 -168 478 -502 505
-60 5 -323 11 -582 15 l-473 6 0 -891z m877 437 c85 -45 85 -189 0 -234 -23
-12 -63 -18 -139 -21 l-108 -4 0 142 0 143 108 -5 c74 -3 117 -10 139 -21z
m-15 -617 c69 -20 107 -118 78 -204 -18 -55 -53 -69 -192 -74 l-118 -4 0 146
0 146 98 0 c53 0 114 -5 134 -10z"/>
<path d="M1670 900 l0 -890 320 0 320 0 0 248 0 248 48 59 c26 32 52 59 57 58
6 0 63 -135 127 -299 l117 -299 288 -8 c329 -10 433 -5 433 22 0 9 -77 174
-171 366 -202 413 -339 702 -339 714 0 16 186 251 417 527 51 62 93 117 93
123 0 8 -100 11 -357 11 l-358 0 -51 -73 c-29 -39 -109 -155 -178 -256 l-126
-184 0 262 0 261 -320 0 -320 0 0 -890z"/>
</g>
</svg>
